<svg xmlns="http://www.w3.org/2000/svg" width="300" height="215" fill="none" aria-labelledby="descId" role="img" viewBox="0 0 300 215"><title id="titleId"/><desc id="descId"/><style>.header{font:600 18px &apos;Segoe UI&apos;,Ubuntu,Sans-Serif;fill:#eb1f6a;animation:fadeInAnimation .8s ease-in-out forwards}@supports (-moz-appearance:auto){.header{font-size:15.5px}}.lang-name{font:400 11px &quot;Segoe UI&quot;,Ubuntu,Sans-Serif;fill:#f1f1eb}.stagger{opacity:0;animation:fadeInAnimation .3s ease-in-out forwards}#rect-mask rect{animation:slideInAnimation 1s ease-in-out forwards}</style><rect width="299" height="99%" x=".5" y=".5" fill="#272822" stroke="#e4e2e2" stroke-opacity="0" data-testid="card-bg" rx="4.5"/><g data-testid="card-title"><g><text x="0" y="0" class="header" data-testid="header" transform="translate(25, 35) translate(0, 0)">Most Used Languages</text></g></g><g data-testid="main-card-body" transform="translate(0, 55)"><svg x="25" data-testid="lang-items"><mask id="rect-mask"><rect width="250" height="8" x="0" y="0" fill="#fff" rx="5"/></mask><rect width="99.32" height="8" x="0" y="0" fill="#f1e05a" data-testid="lang-progress" mask="url(#rect-mask)"/><rect width="74.07" height="8" x="99.32" y="0" fill="#DA5B0B" data-testid="lang-progress" mask="url(#rect-mask)"/><rect width="70.14" height="8" x="173.39" y="0" fill="#3572A5" data-testid="lang-progress" mask="url(#rect-mask)"/><rect width="12.36" height="8" x="243.53" y="0" fill="#dea584" data-testid="lang-progress" mask="url(#rect-mask)"/><rect width="11.95" height="8" x="245.89" y="0" fill="#b07219" data-testid="lang-progress" mask="url(#rect-mask)"/><rect width="10.68" height="8" x="247.84" y="0" fill="#f34b7d" data-testid="lang-progress" mask="url(#rect-mask)"/><rect width="10.6" height="8" x="248.52" y="0" fill="#384d54" data-testid="lang-progress" mask="url(#rect-mask)"/><rect width="10.52" height="8" x="249.12" y="0" fill="#A97BFF" data-testid="lang-progress" mask="url(#rect-mask)"/><rect width="10.33" height="8" x="249.64" y="0" fill="#89e051" data-testid="lang-progress" mask="url(#rect-mask)"/><rect width="10.04" height="8" x="249.97" y="0" fill="#DA3434" data-testid="lang-progress" mask="url(#rect-mask)"/><g><g><g><g class="stagger" style="animation-delay:450ms" transform="translate(0, 25) translate(0, 0) translate(0, 0)"><circle cx="5" cy="6" r="5" fill="#f1e05a"/><text x="15" y="10" class="lang-name" data-testid="lang-name">JavaScript 39.73%</text></g></g><g><g class="stagger" style="animation-delay:600ms" transform="translate(0, 25) translate(0, 0) translate(0, 25)"><circle cx="5" cy="6" r="5" fill="#DA5B0B"/><text x="15" y="10" class="lang-name" data-testid="lang-name">Jupyter Notebook 29.63%</text></g></g><g><g class="stagger" style="animation-delay:750ms" transform="translate(0, 25) translate(0, 0) translate(0, 50)"><circle cx="5" cy="6" r="5" fill="#3572A5"/><text x="15" y="10" class="lang-name" data-testid="lang-name">Python 28.06%</text></g></g><g><g class="stagger" style="animation-delay:900ms" transform="translate(0, 25) translate(0, 0) translate(0, 75)"><circle cx="5" cy="6" r="5" fill="#dea584"/><text x="15" y="10" class="lang-name" data-testid="lang-name">Rust 0.94%</text></g></g><g><g class="stagger" style="animation-delay:1050ms" transform="translate(0, 25) translate(0, 0) translate(0, 100)"><circle cx="5" cy="6" r="5" fill="#b07219"/><text x="15" y="10" class="lang-name" data-testid="lang-name">Java 0.78%</text></g></g></g><g><g><g class="stagger" style="animation-delay:450ms" transform="translate(0, 25) translate(150, 0) translate(0, 0)"><circle cx="5" cy="6" r="5" fill="#f34b7d"/><text x="15" y="10" class="lang-name" data-testid="lang-name">C++ 0.27%</text></g></g><g><g class="stagger" style="animation-delay:600ms" transform="translate(0, 25) translate(150, 0) translate(0, 25)"><circle cx="5" cy="6" r="5" fill="#384d54"/><text x="15" y="10" class="lang-name" data-testid="lang-name">Dockerfile 0.24%</text></g></g><g><g class="stagger" style="animation-delay:750ms" transform="translate(0, 25) translate(150, 0) translate(0, 50)"><circle cx="5" cy="6" r="5" fill="#A97BFF"/><text x="15" y="10" class="lang-name" data-testid="lang-name">Kotlin 0.21%</text></g></g><g><g class="stagger" style="animation-delay:900ms" transform="translate(0, 25) translate(150, 0) translate(0, 75)"><circle cx="5" cy="6" r="5" fill="#89e051"/><text x="15" y="10" class="lang-name" data-testid="lang-name">Shell 0.13%</text></g></g><g><g class="stagger" style="animation-delay:1050ms" transform="translate(0, 25) translate(150, 0) translate(0, 100)"><circle cx="5" cy="6" r="5" fill="#DA3434"/><text x="15" y="10" class="lang-name" data-testid="lang-name">CMake 0.02%</text></g></g></g></g></svg></g></svg>